<?xml version="1.0" encoding="UTF-8"?>
<svg version="1.1" xmlns="http://www.w3.org/2000/svg" width="772" height="542">
<path d="M0 0 C254.43 0 508.86 0 771 0 C771 178.53 771 357.06 771 541 C516.57 541 262.14 541 0 541 C0 362.47 0 183.94 0 0 Z " fill="#020201" transform="translate(0,0)"/>
<path d="M0 0 C2.41597489 0.00056507 4.83195012 0.00024568 7.2479248 -0.00088501 C13.09131335 -0.00139674 18.93463545 0.00721369 24.77800887 0.01999031 C31.58577052 0.03437254 38.39352317 0.037288 45.20129789 0.03956665 C57.33880236 0.04392868 69.47627974 0.057197 81.61376953 0.07617188 C93.39436712 0.0945695 105.17495732 0.10870693 116.95556641 0.1171875 C118.047376 0.11797567 118.047376 0.11797567 119.16124236 0.11877976 C122.81328025 0.1213901 126.4653182 0.12391746 130.11735618 0.12640357 C160.34721843 0.14708955 190.57704781 0.18242424 220.80688477 0.22705078 C218.92401524 4.25247727 216.28336657 7.34781981 213.36938477 10.66455078 C212.27784383 11.92202042 211.18670668 13.17984067 210.09594727 14.43798828 C209.26885254 15.38883301 209.26885254 15.38883301 208.42504883 16.35888672 C206.00800732 19.14935166 203.62453974 21.96761971 201.24438477 24.78955078 C200.3394812 25.86120282 199.43453324 26.93281737 198.52954102 28.00439453 C197.85882568 28.79885986 197.85882568 28.79885986 197.17456055 29.609375 C195.78229059 31.25614057 194.38683004 32.90015145 192.99047852 34.54345703 C187.89006852 40.54976206 182.85120543 46.59690752 177.88500977 52.71533203 C175.37906401 55.74413489 172.77323043 58.67122867 170.11938477 61.57080078 C168.59092399 63.30598716 168.59092399 63.30598716 167.80688477 66.22705078 C166.34913258 66.22925062 166.34913258 66.22925062 164.86193085 66.2314949 C141.20873785 66.26809928 117.55568635 66.32756125 93.90261078 66.41095352 C82.46412421 66.45075303 71.02570653 66.48314093 59.5871582 66.49804688 C49.61664459 66.51105861 39.64628249 66.5380112 29.67585421 66.58166385 C24.39717493 66.60428926 19.11868263 66.6199608 13.83995056 66.61893463 C8.86913372 66.61818867 3.89873034 66.63611414 -1.07197952 66.66821861 C-2.89401488 66.67672141 -4.7160966 66.67846496 -6.53814316 66.67285347 C-9.03189064 66.66619764 -11.52432863 66.68417081 -14.01794434 66.70806885 C-14.73392178 66.70030843 -15.44989923 66.69254801 -16.18757296 66.68455243 C-22.73999497 66.79522278 -27.96721742 69.00115297 -32.56811523 73.60205078 C-36.02779626 79.19076629 -37.19020789 84.74594853 -36.19311523 91.22705078 C-34.2253234 97.13042628 -31.72854129 101.54695299 -26.50587845 105.15898323 C-21.60709058 107.42131442 -16.17222437 106.86762804 -10.88012695 106.79125977 C-9.53387494 106.7898874 -8.18761896 106.79080404 -6.84136963 106.79382324 C-3.94981787 106.79583407 -1.05888863 106.7825599 1.83255386 106.75750542 C6.42608317 106.71863671 11.01910406 106.71927714 15.61276245 106.72584534 C27.03339321 106.73603558 38.45376236 106.69335945 49.87426758 106.64294434 C58.73332123 106.60451737 67.59196249 106.58065131 76.451105 106.59683853 C80.25876739 106.60249076 84.06556669 106.59627181 87.87308121 106.56030083 C108.75979533 106.36769439 131.62229639 106.42245391 148.80688477 120.22705078 C148.80688477 120.88705078 148.80688477 121.54705078 148.80688477 122.22705078 C149.52489258 122.32244141 150.24290039 122.41783203 150.98266602 122.51611328 C162.97367009 125.53459564 172.72866874 138.66897474 179.05688477 148.53955078 C187.88812799 163.6151074 192.030334 177.47172169 192.11938477 194.78955078 C192.12502441 195.83022705 192.13066406 196.87090332 192.13647461 197.94311523 C192.03535425 208.82555132 190.65686724 218.45100768 185.80688477 228.22705078 C185.12625977 229.92861328 185.12625977 229.92861328 184.43188477 231.66455078 C180.8687738 239.47598637 176.16685158 246.54062753 170.80688477 253.22705078 C170.29641602 253.88447266 169.78594727 254.54189453 169.26000977 255.21923828 C163.56335051 262.19086414 156.35044389 268.17357658 147.80688477 271.22705078 C147.80688477 271.88705078 147.80688477 272.54705078 147.80688477 273.22705078 C130.296233 279.94019147 130.296233 279.94019147 121.80688477 282.22705078 C120.88281354 282.48754208 120.88281354 282.48754208 119.94007421 282.75329584 C117.77120441 283.23497495 115.87885702 283.35128631 113.66022873 283.35009861 C112.83714997 283.35208966 112.01407121 283.35408071 111.16605067 283.35613209 C109.81780487 283.35176283 109.81780487 283.35176283 108.44232178 283.3473053 C107.48335283 283.34815972 106.52438387 283.34901415 105.53635526 283.34989446 C102.31498947 283.35154486 99.09367546 283.34603504 95.87231445 283.34057617 C93.56633505 283.34029418 91.26035557 283.34045227 88.95437622 283.34101868 C82.68621012 283.34130618 76.41806306 283.33541701 70.14990139 283.32844472 C63.60223423 283.32220339 57.05456665 283.32160676 50.50689697 283.32041931 C39.51444162 283.31782859 28.52199295 283.31141116 17.52954102 283.30249023 C6.20727575 283.2933112 -5.11498762 283.28623277 -16.43725586 283.28198242 C-17.48411497 283.28158834 -17.48411497 283.28158834 -18.55212274 283.28118629 C-22.05331287 283.27988125 -25.554503 283.27861754 -29.05569315 283.27737439 C-58.10150507 283.2670077 -87.14731006 283.2493202 -116.19311523 283.22705078 C-114.28998736 279.14703106 -111.58492517 276.02078587 -108.63061523 272.66455078 C-107.53842448 271.40894853 -106.44728826 270.15242826 -105.35717773 268.89501953 C-104.54941895 267.96375244 -104.54941895 267.96375244 -103.7253418 267.01367188 C-101.60389289 264.54000025 -99.55270965 262.01240977 -97.50561523 259.47705078 C-93.95160358 255.09697155 -90.22775393 250.9127679 -86.43139648 246.74267578 C-83.39782498 243.33321671 -80.54108298 239.79271678 -77.66967773 236.24658203 C-74.74384011 232.67927527 -71.75847498 229.16706264 -68.75561523 225.66455078 C-68.23507568 225.05643555 -67.71453613 224.44832031 -67.17822266 223.82177734 C-61.53675588 217.25695858 -61.53675588 217.25695858 -58.31441307 216.976511 C-57.07300875 216.97617552 -55.83160442 216.97584003 -54.55258179 216.97549438 C-53.86231356 216.97252425 -53.17204534 216.96955411 -52.46085989 216.96649396 C-50.13633968 216.95882518 -47.81207002 216.96535974 -45.48754883 216.97167969 C-43.82537667 216.96893104 -42.16320582 216.96525191 -40.5010376 216.96070862 C-36.91496381 216.95258188 -33.32895244 216.9504319 -29.74287033 216.95265579 C-24.06962726 216.95548389 -18.39650925 216.94115441 -12.72329712 216.92367554 C3.41158148 216.8766046 19.54645231 216.85271602 35.68139648 216.84619141 C44.5876364 216.84243783 53.49373552 216.82438107 62.3999151 216.79109704 C68.03606565 216.77089627 73.6718527 216.76850686 79.30802464 216.77937722 C82.82222629 216.78198955 86.33621766 216.76795415 89.85036469 216.74929619 C91.47568113 216.74398577 93.10103658 216.7454513 94.72633743 216.75433159 C107.53135069 217.03064605 107.53135069 217.03064605 118.30842018 210.77984047 C122.78649673 205.71708809 124.09771787 202.06878874 124.11938477 195.35205078 C124.14452148 193.56154297 124.14452148 193.56154297 124.17016602 191.73486328 C123.68026794 187.00444965 122.35743444 183.71710673 118.90454102 180.39892578 C118.23293945 179.92970703 117.56133789 179.46048828 116.86938477 178.97705078 C116.20036133 178.49751953 115.53133789 178.01798828 114.84204102 177.52392578 C110.85730563 174.98470861 108.17908396 173.9767414 103.3910675 173.96203613 C101.74104736 173.94962639 101.74104736 173.94962639 100.05769348 173.93696594 C98.85513412 173.93794785 97.65257477 173.93892975 96.41357422 173.93994141 C94.46305316 173.92945108 92.5125321 173.91896035 90.56201112 173.9084549 C88.46550563 173.89908511 86.36903994 173.89461447 84.27251625 173.89152527 C79.88620995 173.8847912 75.50005632 173.86300573 71.11381531 173.83898926 C61.78237442 173.79002056 52.45090072 173.75779372 43.11938477 173.72705078 C33.08790342 173.69388538 23.05648179 173.65754218 13.02509087 173.60292006 C9.3877483 173.58357765 5.75048403 173.56822734 2.11309242 173.56257629 C-28.75543526 173.51282497 -54.93493254 171.57684631 -78.00561523 149.03955078 C-84.18557477 142.76862759 -88.79354069 135.83370739 -93.19311523 128.22705078 C-93.54140381 127.66260254 -93.88969238 127.0981543 -94.24853516 126.51660156 C-96.72418057 122.42321334 -98.16278009 118.51461963 -99.38061523 113.85205078 C-100.16795909 109.72657168 -100.16795909 109.72657168 -102.19311523 106.22705078 C-105.39323197 89.39765989 -105.41799608 67.16810465 -96.19311523 52.22705078 C-95.70228488 50.93789629 -95.23394536 49.64005342 -94.78295898 48.33642578 C-93.32797778 44.31709907 -91.27462609 40.91766319 -88.75561523 37.47705078 C-88.32313477 36.88142334 -87.8906543 36.2857959 -87.44506836 35.67211914 C-78.13899098 23.20389492 -66.78008576 12.97835236 -52.19311523 7.22705078 C-51.22760742 6.80423828 -50.26209961 6.38142578 -49.26733398 5.94580078 C-33.37003779 -0.73145183 -16.93912914 -0.05580863 0 0 Z " fill="#6DF365" transform="translate(383.193115234375,196.77294921875)"/>
<path d="M0 0 C2.23907968 0.00084827 4.47816018 0.00036723 6.71723938 -0.00132751 C12.73878361 -0.00218107 18.76014509 0.0153401 24.78164721 0.03639436 C31.09566326 0.05526884 37.40968445 0.05692003 43.72372437 0.06047058 C54.30298935 0.06870714 64.88219514 0.08738945 75.46142578 0.11425781 C86.34846673 0.14187883 97.23548958 0.1630728 108.12255859 0.17578125 C108.79587757 0.17656942 109.46919654 0.17735759 110.16291912 0.17816965 C113.54143176 0.18208532 116.91994453 0.18587631 120.29845738 0.18960536 C148.23856838 0.22060508 176.17860621 0.27358191 204.11865234 0.34057617 C202.48942678 3.77664625 200.59995969 6.17764462 197.99365234 8.96557617 C194.23449065 13.06593566 190.72147031 17.27862714 187.27880859 21.64526367 C184.80048168 24.73757031 182.24960411 27.76060985 179.68115234 30.77807617 C175.53829318 35.64689369 171.46653532 40.56625867 167.43505859 45.52807617 C165.77281685 47.54631236 164.09802205 49.54406833 162.39599609 51.52807617 C161.92419922 52.07915039 161.45240234 52.63022461 160.96630859 53.19799805 C159.18333129 55.27484557 157.39418163 57.346181 155.5937748 59.40794277 C154.00113548 61.39361059 154.00113548 61.39361059 152.63942528 64.04677677 C149.98943027 68.56720795 147.97846261 71.77315043 142.82327652 73.34599113 C138.65755962 73.70874205 134.61580029 73.72349527 130.44140625 73.61767578 C128.85368075 73.61788729 127.26594951 73.623004 125.67825317 73.63262939 C122.26810807 73.64276229 118.86061783 73.61829868 115.45085526 73.56654167 C110.04293486 73.48456109 104.63655847 73.47961051 99.2281189 73.48426819 C90.65737623 73.48244584 82.0878822 73.42815483 73.51750791 73.35200077 C58.21472713 73.21742462 42.91160469 73.1664384 27.60828722 73.14256293 C22.25060912 73.13207676 16.89382584 73.0973283 11.53643537 73.04139984 C8.1770082 73.00971665 4.81763052 72.9946141 1.45808029 72.98297119 C-0.079255 72.9740565 -1.61657152 72.95827531 -3.15374756 72.93441963 C-14.41533688 72.76417567 -25.07272352 74.01719155 -35.88134766 77.34057617 C-36.21134766 78.00057617 -36.54134766 78.66057617 -36.88134766 79.34057617 C-38.49503102 79.81256261 -40.11242586 80.27439937 -41.7434082 80.68261719 C-65.28242458 86.72727932 -85.31396471 106.6655393 -98.06884766 126.65307617 C-107.84863548 143.274772 -114.5989729 160.83654855 -114.88134766 180.34057617 C-114.90986816 181.68224854 -114.90986816 181.68224854 -114.93896484 183.05102539 C-115.0005479 186.18923739 -115.03896923 189.32690764 -115.06884766 192.46557617 C-115.08878784 193.96834106 -115.08878784 193.96834106 -115.10913086 195.50146484 C-115.11529986 202.32830726 -114.34537959 208.67736205 -112.88134766 215.34057617 C-112.72029541 216.09129395 -112.55924316 216.84201172 -112.39331055 217.61547852 C-105.86203594 246.44521561 -86.49683436 273.18637093 -63.43212891 291.32495117 C-61.16792218 293.11412525 -59.0207497 294.96846414 -56.88134766 296.90307617 C-52.16302309 301.09058923 -47.02575124 304.69977584 -41.88134766 308.34057617 C-43.33129292 313.06600018 -46.13625486 316.0622568 -49.50634766 319.52807617 C-53.81140405 324.0686501 -57.84437757 328.68694089 -61.69775391 333.62182617 C-64.46312397 337.06493452 -67.35334957 340.38836133 -70.25634766 343.71557617 C-74.42190608 348.49480251 -78.56452673 353.28936805 -82.63134766 358.15307617 C-83.43056641 359.10827148 -84.22978516 360.0634668 -85.05322266 361.04760742 C-86.89509505 363.19481971 -86.89509505 363.19481971 -87.88134766 365.34057617 C-92.05010379 364.81461161 -94.14954293 362.5355115 -97.13134766 359.71557617 C-98.12034454 358.79046966 -99.10992989 357.86599185 -100.10009766 356.94213867 C-101.01791016 356.08362305 -101.93572266 355.22510742 -102.88134766 354.34057617 C-104.12497577 353.24993406 -105.37427974 352.16570005 -106.63134766 351.09057617 C-124.2535334 335.73045154 -124.2535334 335.73045154 -131.28759766 327.24291992 C-133.19547062 324.96563038 -135.22810578 322.82371174 -137.25634766 320.65307617 C-144.36381903 312.76124887 -161.88134766 292.68678225 -161.88134766 281.34057617 C-162.54134766 281.34057617 -163.20134766 281.34057617 -163.88134766 281.34057617 C-168.66125676 272.73250979 -171.75402376 263.6352935 -174.88134766 254.34057617 C-175.24715942 253.27818726 -175.24715942 253.27818726 -175.62036133 252.19433594 C-177.62254349 246.3221816 -179.33806452 240.39498817 -180.94384766 234.40307617 C-181.19972656 233.49750977 -181.45560547 232.59194336 -181.71923828 231.65893555 C-185.84416508 216.2090169 -186.32462476 200.24737106 -186.31884766 184.34057617 C-186.31958282 183.44971313 -186.32031799 182.5588501 -186.32107544 181.64099121 C-186.2128942 131.44265266 -165.09568576 85.63900822 -129.88134766 50.34057617 C-119.59200386 40.16587688 -108.01371823 31.69786178 -95.69384766 24.15307617 C-94.75847168 23.5728772 -94.75847168 23.5728772 -93.80419922 22.98095703 C-90.45687276 20.98882905 -88.88741079 20.34057617 -84.88134766 20.34057617 C-84.88134766 19.68057617 -84.88134766 19.02057617 -84.88134766 18.34057617 C-77.30652406 14.43387582 -70.34567416 12.33029672 -61.88134766 11.34057617 C-61.88134766 10.68057617 -61.88134766 10.02057617 -61.88134766 9.34057617 C-58.76170638 8.38464684 -55.63478392 7.45477683 -52.50634766 6.52807617 C-51.65556641 6.26704102 -50.80478516 6.00600586 -49.92822266 5.73706055 C-33.31438825 0.86126132 -17.20512775 -0.092444 0 0 Z " fill="#FAFAFA" transform="translate(336.88134765625,84.659423828125)"/>
<path d="M0 0 C80.85 0 161.7 0 245 0 C244.34 1.32 243.68 2.64 243 4 C242.67 3.01 242.34 2.02 242 1 C162.14 1 82.28 1 0 1 C0 0.67 0 0.34 0 0 Z " fill="#84CC62" transform="translate(359,197)"/>
<path d="M0 0 C19.14 0 38.28 0 58 0 C57.34 1.32 56.68 2.64 56 4 C55.505 2.515 55.505 2.515 55 1 C36.85 1 18.7 1 0 1 C0 0.67 0 0.34 0 0 Z " fill="#73CC5C" transform="translate(546,197)"/>
<path d="M0 0 C1.32 0.33 2.64 0.66 4 1 C4 1.99 4 2.98 4 4 C4.66 4 5.32 4 6 4 C7.36312276 7.94588167 6.95972009 11.84674054 6.6875 15.9375 C6.65205078 16.64068359 6.61660156 17.34386719 6.58007812 18.06835938 C6.27940576 22.85667897 5.89873357 27.00780545 2.4921875 30.58203125 C0.24609375 32.29101562 0.24609375 32.29101562 -2 34 C-2.66 33.67 -3.32 33.34 -4 33 C-3.38511719 32.31164062 -3.38511719 32.31164062 -2.7578125 31.609375 C-2.21898437 30.99578125 -1.68015625 30.3821875 -1.125 29.75 C-0.59132813 29.14671875 -0.05765625 28.5434375 0.4921875 27.921875 C3.8317428 23.66523975 4.29497453 20.55789569 4.3125 15.125 C4.32925781 13.93132812 4.34601563 12.73765625 4.36328125 11.5078125 C3.9678869 7.68991866 2.9020979 5.30339027 1 2 C0.67 1.34 0.34 0.68 0 0 Z " fill="#2DA33D" transform="translate(503,377)"/>
<path d="M0 0 C0.33 0 0.66 0 1 0 C0.67 8.58 0.34 17.16 0 26 C-0.33 25.34 -0.66 24.68 -1 24 C-1.66 24 -2.32 24 -3 24 C-3 19.05 -3 14.1 -3 9 C-2.34 9 -1.68 9 -1 9 C-0.67 6.03 -0.34 3.06 0 0 Z " fill="#D5D5D5" transform="translate(221,257)"/>
<path d="M0 0 C0.66 0.33 1.32 0.66 2 1 C0.56354149 2.60509934 -0.87420706 4.20904424 -2.3125 5.8125 C-3.11300781 6.70582031 -3.91351563 7.59914062 -4.73828125 8.51953125 C-8.64426354 12.80329421 -8.64426354 12.80329421 -10 14 C-10.66 14 -11.32 14 -12 14 C-10.41332422 10.09714233 -7.86649519 7.66479018 -4.875 4.75 C-3.96492188 3.85796875 -3.05484375 2.9659375 -2.1171875 2.046875 C-1.41851562 1.37140625 -0.71984375 0.6959375 0 0 Z " fill="#3C3C3D" transform="translate(261,184)"/>
<path d="M0 0 C0.99 0.33 1.98 0.66 3 1 C0.03 3.97 -2.94 6.94 -6 10 C-6.33 9.01 -6.66 8.02 -7 7 C-4.69 4.69 -2.38 2.38 0 0 Z " fill="#9BDD72" transform="translate(307,220)"/>
<path d="M0 0 C0.66 0.33 1.32 0.66 2 1 C-0.97 4.3 -3.94 7.6 -7 11 C-7.99 10.67 -8.98 10.34 -10 10 C-6.7 6.7 -3.4 3.4 0 0 Z " fill="#B3B1B3" transform="translate(210,132)"/>
<path d="M0 0 C0.33 1.32 0.66 2.64 1 4 C0.50628906 4.40992188 0.01257813 4.81984375 -0.49609375 5.2421875 C-1.13675781 5.78101563 -1.77742188 6.31984375 -2.4375 6.875 C-3.07558594 7.40867187 -3.71367187 7.94234375 -4.37109375 8.4921875 C-6.10805004 9.9222757 -6.10805004 9.9222757 -7 12 C-7.66 11.67 -8.32 11.34 -9 11 C-6.03 7.37 -3.06 3.74 0 0 Z " fill="#53D052" transform="translate(313,424)"/>
<path d="M0 0 C0.33 0.66 0.66 1.32 1 2 C-1.31 4.97 -3.62 7.94 -6 11 C-6.99 10.67 -7.98 10.34 -9 10 C-6.03 6.7 -3.06 3.4 0 0 Z " fill="#4DCA4F" transform="translate(303,436)"/>
<path d="M0 0 C0.66 0.66 1.32 1.32 2 2 C-0.31 4.31 -2.62 6.62 -5 9 C-5.66 8.67 -6.32 8.34 -7 8 C-4.69 5.36 -2.38 2.72 0 0 Z " fill="#54CF54" transform="translate(321,415)"/>
<path d="M0 0 C0.66 0.33 1.32 0.66 2 1 C-0.31 3.64 -2.62 6.28 -5 9 C-5.33 8.34 -5.66 7.68 -6 7 C-4.02 4.69 -2.04 2.38 0 0 Z " fill="#1F3818" transform="translate(354,266)"/>
<path d="M0 0 C0.66 0.66 1.32 1.32 2 2 C-0.31 4.31 -2.62 6.62 -5 9 C-5.66 8.67 -6.32 8.34 -7 8 C-4.69 5.36 -2.38 2.72 0 0 Z " fill="#47CD4F" transform="translate(280,463)"/>
<path d="M0 0 C1.32 0.33 2.64 0.66 4 1 C4 1.99 4 2.98 4 4 C4.66 4 5.32 4 6 4 C6.33 5.32 6.66 6.64 7 8 C6.01 8 5.02 8 4 8 C2.66666667 5.33333333 1.33333333 2.66666667 0 0 Z " fill="#3FD553" transform="translate(503,377)"/>
<path d="M0 0 C1.7397511 3.23096633 3.02103997 6.46068295 4 10 C3.67 10.99 3.34 11.98 3 13 C0.78145293 8.37802694 -0.38281159 5.23175837 0 0 Z " fill="#98DF74" transform="translate(283,303)"/>
<path d="M0 0 C0.33 0.99 0.66 1.98 1 3 C-0.65 4.65 -2.3 6.3 -4 8 C-4.66 7.67 -5.32 7.34 -6 7 C-4.02 4.69 -2.04 2.38 0 0 Z " fill="#56D25B" transform="translate(292,449)"/>
<path d="M0 0 C0.99 0.33 1.98 0.66 3 1 C0.03 3.475 0.03 3.475 -3 6 C-3.66 5.67 -4.32 5.34 -5 5 C-3.35 3.35 -1.7 1.7 0 0 Z " fill="#32C646" transform="translate(504,405)"/>
</svg>
